<svg width="242" height="155" viewBox="0 0 242 155" fill="none" xmlns="http://www.w3.org/2000/svg">
<path fill-rule="evenodd" clip-rule="evenodd" d="M5.333 154.977C4.8218 154.977 4.31061 154.812 3.87739 154.466C2.86367 153.669 2.69905 152.196 3.49616 151.182C3.52216 151.147 5.63625 148.08 5.63625 142.041C5.63625 139.217 4.74382 136.756 3.70411 133.914C2.42179 130.379 0.95752 126.385 0.95752 120.857C0.95752 110.633 6.99655 103.173 7.25648 102.861C8.07092 101.865 9.55252 101.717 10.5403 102.541C11.5366 103.364 11.6839 104.828 10.8608 105.824C10.7829 105.92 5.62759 112.375 5.62759 120.857C5.62759 125.553 6.87525 128.993 8.08825 132.32C9.17129 135.309 10.2977 138.394 10.2977 142.05C10.2977 149.787 7.30846 153.885 7.14384 154.093C6.70196 154.674 6.02614 154.977 5.333 154.977Z" fill="#95BF0A"/>
<path fill-rule="evenodd" clip-rule="evenodd" d="M200.843 130.431V125.215H206.128V130.431H200.843Z" fill="#95BF0A"/>
<path fill-rule="evenodd" clip-rule="evenodd" d="M222.131 117.244H220.407C216.699 117.244 215.018 119.168 215.018 122.703V130.431H210.218V112.782H214.853V114.775H215.746C216.292 113.952 217.669 112.782 220.485 112.782H222.131V117.244Z" fill="#95BF0A"/>
<path fill-rule="evenodd" clip-rule="evenodd" d="M229.306 112.782V122.772C229.306 125.242 230.511 126.619 232.746 126.619C235.181 126.619 236.662 124.522 236.662 122.157V112.782H241.471V130.431H236.835V128.82H235.943C234.877 130.198 233.266 130.882 231.03 130.882C226.603 130.882 224.506 128.17 224.506 123.639V112.791H229.306V112.782Z" fill="#95BF0A"/>
<path fill-rule="evenodd" clip-rule="evenodd" d="M34.3846 112.643C33.9427 110.685 32.4957 109.862 29.9224 109.862C27.7564 109.862 25.9109 110.72 25.9109 112.643C25.9109 114.255 27.2798 114.835 28.9607 115.147L33.5268 115.97C37.3737 116.689 40.1897 118.717 40.1897 123.144C40.1897 127.234 37.0272 130.873 30.3383 130.873C24.126 130.873 20.383 127.78 19.8632 122.936H25.0791C25.5296 125.648 27.895 126.471 30.5376 126.471C33.2495 126.471 35.0344 125.336 35.0344 123.378C35.0344 121.455 33.7607 120.701 31.6986 120.32L27.0285 119.497C22.939 118.777 20.7469 116.507 20.7469 112.799C20.7469 108.779 24.048 105.452 29.9831 105.452C35.3376 105.452 39.046 108.198 39.6005 112.626L34.3846 112.643Z" fill="#A2A09E"/>
<path fill-rule="evenodd" clip-rule="evenodd" d="M59.6848 124.487C59.2343 128.299 56.0458 130.873 51.6184 130.873C46.1598 130.873 42.7288 127.199 42.7288 121.602C42.7288 116.039 46.1685 112.331 51.6184 112.331C56.0458 112.331 59.1043 114.8 59.5462 118.413H54.7722C54.3996 117.07 53.4032 116.351 51.653 116.351C48.6638 116.351 47.5288 118.717 47.5288 121.567C47.5288 124.452 48.6985 126.887 51.653 126.887C53.5678 126.887 54.6769 125.995 54.9454 124.487H59.6848Z" fill="#A2A09E"/>
<path fill-rule="evenodd" clip-rule="evenodd" d="M80.1498 121.602C80.1498 127.13 76.6494 130.873 71.0176 130.873C65.4551 130.873 61.8854 127.13 61.8854 121.602C61.8854 116.074 65.4551 112.331 71.0176 112.331C76.6494 112.331 80.1498 116.074 80.1498 121.602ZM75.3497 121.602C75.3497 118.786 74.0414 116.351 71.0262 116.351C68.037 116.351 66.7027 118.786 66.7027 121.602C66.7027 124.452 68.037 126.887 71.0262 126.887C74.0414 126.887 75.3497 124.452 75.3497 121.602Z" fill="#A2A09E"/>
<path fill-rule="evenodd" clip-rule="evenodd" d="M88.1816 105.469V130.431H83.3816V105.469H88.1816Z" fill="#A2A09E"/>
<path fill-rule="evenodd" clip-rule="evenodd" d="M92.4095 109.758V105.469H97.2875V109.758H92.4095ZM97.2529 130.431H92.4442V112.782H97.2529V130.431Z" fill="#A2A09E"/>
<path fill-rule="evenodd" clip-rule="evenodd" d="M118.775 121.602C118.775 127.13 115.275 130.873 109.643 130.873C104.08 130.873 100.511 127.13 100.511 121.602C100.511 116.074 104.08 112.331 109.643 112.331C115.275 112.331 118.775 116.074 118.775 121.602ZM113.975 121.602C113.975 118.786 112.667 116.351 109.651 116.351C106.662 116.351 105.328 118.786 105.328 121.602C105.328 124.452 106.671 126.887 109.651 126.887C112.667 126.887 113.975 124.452 113.975 121.602Z" fill="#A2A09E"/>
<path fill-rule="evenodd" clip-rule="evenodd" d="M126.807 105.469V130.431H122.007V105.469H126.807Z" fill="#A2A09E"/>
<path fill-rule="evenodd" clip-rule="evenodd" d="M148.312 121.602C148.312 127.13 144.812 130.873 139.18 130.873C133.618 130.873 130.048 127.13 130.048 121.602C130.048 116.074 133.618 112.331 139.18 112.331C144.803 112.331 148.312 116.074 148.312 121.602ZM143.504 121.602C143.504 118.786 142.195 116.351 139.18 116.351C136.191 116.351 134.857 118.786 134.857 121.602C134.857 124.452 136.191 126.887 139.18 126.887C142.195 126.887 143.504 124.452 143.504 121.602Z" fill="#A2A09E"/>
<path fill-rule="evenodd" clip-rule="evenodd" d="M168.534 112.782V129.573C168.534 134.581 164.895 137.674 159.67 137.674C154.827 137.674 151.569 135.612 151.188 131.731H155.962C156.204 133.169 157.4 133.897 159.601 133.897C162.625 133.897 163.725 131.835 163.725 129.157V128.126H162.833C162.044 129.227 160.71 130.154 158.232 130.154C153.527 130.154 150.538 126.48 150.538 121.264C150.538 116.083 153.562 112.34 158.267 112.34C160.745 112.34 162.321 113.336 163.006 114.402H163.898V112.79L168.534 112.782ZM163.898 121.264C163.898 118.518 162.425 116.351 159.575 116.351C156.863 116.351 155.347 118.414 155.347 121.264C155.347 124.115 156.854 126.142 159.575 126.142C162.417 126.133 163.898 123.941 163.898 121.264Z" fill="#A2A09E"/>
<path fill-rule="evenodd" clip-rule="evenodd" d="M172.754 109.758V105.469H177.632V109.758H172.754ZM177.597 130.431H172.788V112.782H177.597V130.431Z" fill="#A2A09E"/>
<path fill-rule="evenodd" clip-rule="evenodd" d="M197.819 124.487C197.369 128.299 194.18 130.873 189.753 130.873C184.294 130.873 180.863 127.199 180.863 121.602C180.863 116.039 184.294 112.331 189.753 112.331C194.18 112.331 197.239 114.8 197.689 118.413H192.915C192.534 117.07 191.546 116.351 189.788 116.351C186.807 116.351 185.672 118.717 185.672 121.567C185.672 124.452 186.842 126.887 189.788 126.887C191.711 126.887 192.811 125.995 193.089 124.487H197.819Z" fill="#A2A09E"/>
<path fill-rule="evenodd" clip-rule="evenodd" d="M27.6875 142.24V149.848H26.1019V143.661H22.8181V149.848H21.2325V142.24H27.6875Z" fill="#A2A09E"/>
<path fill-rule="evenodd" clip-rule="evenodd" d="M33.059 142.24C34.8005 142.24 35.8056 143.133 35.8056 144.658C35.8056 146.2 34.8005 147.118 33.059 147.118H31.1702V149.848H29.5846V142.24H33.059ZM32.8337 145.723C33.8128 145.723 34.1767 145.351 34.1767 144.684C34.1767 143.999 33.8128 143.635 32.8337 143.635H31.1702V145.723H32.8337Z" fill="#A2A09E"/>
<path fill-rule="evenodd" clip-rule="evenodd" d="M44.383 146.044C44.383 148.28 43.092 149.987 40.6833 149.987C38.266 149.987 36.975 148.28 36.975 146.044C36.975 143.809 38.266 142.102 40.6833 142.102C43.1006 142.102 44.383 143.809 44.383 146.044ZM42.7541 146.044C42.7541 144.641 42.1042 143.514 40.6746 143.514C39.271 143.514 38.5952 144.632 38.5952 146.044C38.5952 147.448 39.2624 148.566 40.6746 148.566C42.1042 148.566 42.7541 147.448 42.7541 146.044Z" fill="#A2A09E"/>
<path fill-rule="evenodd" clip-rule="evenodd" d="M51.4705 143.635H49.1051V149.848H47.5195V143.635H45.1542V142.24H51.4705V143.635Z" fill="#A2A09E"/>
<path fill-rule="evenodd" clip-rule="evenodd" d="M58.4107 148.427V149.848H52.6663V142.24H58.2894V143.661H54.2518V145.255H57.397V146.642H54.2518V148.427H58.4107Z" fill="#A2A09E"/>
<path fill-rule="evenodd" clip-rule="evenodd" d="M62.7428 143.514C61.9803 143.514 61.4778 143.783 61.3565 144.389H59.7189C59.8835 142.934 61.0186 142.093 62.7688 142.093C64.5709 142.093 65.6193 142.977 65.6193 144.181C65.6193 144.996 65.2468 145.455 64.8569 145.663V145.94C65.4634 146.165 65.9052 146.685 65.9052 147.638C65.9052 148.947 64.7615 149.978 62.7947 149.978C60.7066 149.978 59.6323 149.051 59.4503 147.526H61.1225C61.3045 148.219 61.859 148.557 62.7947 148.557C63.6872 148.557 64.2504 148.176 64.2504 147.569C64.2504 146.971 63.8518 146.616 62.916 146.616H61.7984V145.23H62.916C63.7392 145.23 63.9991 144.84 63.9991 144.363C63.9731 143.791 63.4272 143.514 62.7428 143.514Z" fill="#A2A09E"/>
<path fill-rule="evenodd" clip-rule="evenodd" d="M73.9982 142.24V149.848H72.4127V146.668H69.0422V149.848H67.4567V142.24H69.0422V145.203H72.4127V142.24H73.9982Z" fill="#A2A09E"/>
<path fill-rule="evenodd" clip-rule="evenodd" d="M82.9396 146.044C82.9396 148.28 81.6486 149.987 79.2313 149.987C76.8139 149.987 75.5229 148.28 75.5229 146.044C75.5229 143.809 76.8139 142.102 79.2313 142.102C81.6486 142.102 82.9396 143.809 82.9396 146.044ZM81.3107 146.044C81.3107 144.641 80.6609 143.514 79.2399 143.514C77.8363 143.514 77.1605 144.632 77.1605 146.044C77.1605 147.448 77.8277 148.566 79.2399 148.566C80.6609 148.566 81.3107 147.448 81.3107 146.044Z" fill="#A2A09E"/>
<path fill-rule="evenodd" clip-rule="evenodd" d="M84.101 147.482V146.191H87.3328V147.482H84.101Z" fill="#A2A09E"/>
<path fill-rule="evenodd" clip-rule="evenodd" d="M95.9099 146.044C95.9099 148.28 94.619 149.987 92.2016 149.987C89.7843 149.987 88.4933 148.28 88.4933 146.044C88.4933 143.809 89.7843 142.102 92.2016 142.102C94.619 142.102 95.9099 143.809 95.9099 146.044ZM94.281 146.044C94.281 144.641 93.6312 143.514 92.2016 143.514C90.798 143.514 90.1222 144.632 90.1222 146.044C90.1222 147.448 90.7893 148.566 92.2016 148.566C93.6226 148.566 94.281 147.448 94.281 146.044Z" fill="#A2A09E"/>
<path fill-rule="evenodd" clip-rule="evenodd" d="M100.926 142.24C102.668 142.24 103.673 143.133 103.673 144.658C103.673 146.2 102.668 147.118 100.926 147.118H99.0372V149.848H97.4517V142.24H100.926ZM100.701 145.723C101.68 145.723 102.044 145.351 102.044 144.684C102.044 143.999 101.68 143.635 100.701 143.635H99.0372V145.723H100.701Z" fill="#A2A09E"/>
<path fill-rule="evenodd" clip-rule="evenodd" d="M110.813 143.635H108.447V149.848H106.862V143.635H104.496V142.24H110.821V143.635H110.813Z" fill="#A2A09E"/>
<path fill-rule="evenodd" clip-rule="evenodd" d="M118.992 146.044C118.992 148.28 117.701 149.987 115.283 149.987C112.866 149.987 111.575 148.28 111.575 146.044C111.575 143.809 112.866 142.102 115.283 142.102C117.701 142.102 118.992 143.809 118.992 146.044ZM117.363 146.044C117.363 144.641 116.713 143.514 115.283 143.514C113.88 143.514 113.204 144.632 113.204 146.044C113.204 147.448 113.871 148.566 115.283 148.566C116.713 148.566 117.363 147.448 117.363 146.044Z" fill="#A2A09E"/>
<path fill-rule="evenodd" clip-rule="evenodd" d="M126.989 142.24V149.848H125.404V143.661H122.129V149.848H120.543V142.24H126.989Z" fill="#A2A09E"/>
<path fill-rule="evenodd" clip-rule="evenodd" d="M134.631 148.427V149.848H128.886V142.24H134.51V143.661H130.472V145.255H133.617V146.642H130.472V148.427H134.631Z" fill="#A2A09E"/>
<path fill-rule="evenodd" clip-rule="evenodd" d="M143.494 148.427V151.71H141.952V149.848H136.953V151.71H135.411V148.427H136.199C136.71 147.525 137.1 146.122 137.1 143.912V142.24H142.411V148.427H143.494ZM140.861 143.653H138.564V144.32C138.564 146.252 138.235 147.603 137.802 148.418H140.861V143.653Z" fill="#A2A09E"/>
<path fill-rule="evenodd" clip-rule="evenodd" d="M146.25 142.24V147.543H146.528L149.266 142.24H151.406V149.848H149.915V144.424H149.638L146.84 149.848H144.769V142.24H146.25Z" fill="#A2A09E"/>
<path fill-rule="evenodd" clip-rule="evenodd" d="M154.576 142.24V144.415C154.576 145.03 154.585 145.671 156.162 145.671C156.595 145.671 157.054 145.619 157.47 145.498V142.24H159.056V149.848H157.47V146.91C156.967 147.032 156.318 147.092 155.78 147.092C153.094 147.092 152.99 145.871 152.99 144.666V142.249H154.576V142.24Z" fill="#A2A09E"/>
<path fill-rule="evenodd" clip-rule="evenodd" d="M166.697 148.427V149.848H160.953V142.24H166.576V143.661H162.538V145.255H165.683V146.642H162.538V148.427H166.697Z" fill="#A2A09E"/>
<path fill-rule="evenodd" clip-rule="evenodd" d="M174.642 147.413C174.417 148.921 173.247 149.978 171.471 149.978C169.149 149.978 167.823 148.366 167.823 146.036C167.823 143.705 169.158 142.093 171.471 142.093C173.161 142.093 174.322 143.055 174.573 144.45H172.909C172.727 143.817 172.242 143.514 171.471 143.514C170.111 143.514 169.461 144.632 169.461 146.044C169.461 147.448 170.111 148.566 171.471 148.566C172.294 148.566 172.831 148.141 172.996 147.413H174.642Z" fill="#A2A09E"/>
<path fill-rule="evenodd" clip-rule="evenodd" d="M176.168 142.24H177.753V145.212H179.555L180.95 142.24H182.588L180.881 145.94L182.683 149.848H181.037L179.555 146.65H177.736V149.848H176.15L176.168 142.24Z" fill="#A2A09E"/>
<path fill-rule="evenodd" clip-rule="evenodd" d="M185.421 142.24V147.543H185.698L188.436 142.24H190.576V149.848H189.086V144.424H188.809L186.01 149.848H183.94V142.24H185.421Z" fill="#A2A09E"/>
<path fill-rule="evenodd" clip-rule="evenodd" d="M193.956 142.24V147.543H194.224L196.962 142.24H199.102V149.848H197.612V144.424H197.335L194.536 149.848H192.465V142.24H193.956ZM197.794 140.213C197.707 141.235 196.988 141.85 195.784 141.85C194.579 141.85 193.852 141.235 193.774 140.213H194.943C194.987 140.585 195.264 140.871 195.792 140.871C196.304 140.871 196.581 140.585 196.633 140.213H197.794Z" fill="#A2A09E"/>
<path fill-rule="evenodd" clip-rule="evenodd" d="M210.062 149.848H204.11V142.24H205.696V148.427H208.936V142.24H210.522V148.427H211.613V151.71H210.071L210.062 149.848Z" fill="#A2A09E"/>
<path fill-rule="evenodd" clip-rule="evenodd" d="M218.623 148.427V149.848H212.887V142.24H218.51V143.661H214.473V145.255H217.618V146.642H214.473V148.427H218.623Z" fill="#A2A09E"/>
<path fill-rule="evenodd" clip-rule="evenodd" d="M226.655 142.24V149.848H225.069V146.668H221.699V149.848H220.113V142.24H221.699V145.203H225.069V142.24H226.655Z" fill="#A2A09E"/>
<path fill-rule="evenodd" clip-rule="evenodd" d="M234.158 143.635H231.792V149.848H230.207V143.635H227.841V142.24H234.158V143.635Z" fill="#A2A09E"/>
<path fill-rule="evenodd" clip-rule="evenodd" d="M238.819 142.24C240.561 142.24 241.566 143.133 241.566 144.658C241.566 146.2 240.561 147.118 238.819 147.118H236.93V149.848H235.345V142.24H238.819ZM238.603 145.723C239.582 145.723 239.946 145.351 239.946 144.684C239.946 143.999 239.582 143.635 238.603 143.635H236.939V145.723H238.603Z" fill="#A2A09E"/>
<path fill-rule="evenodd" clip-rule="evenodd" d="M200.047 70.6388C199.38 72.2417 181.964 112.574 123.064 83.0288C123.064 83.0288 175.44 108.086 196.373 72.519C196.321 72.519 196.26 72.5276 196.208 72.5276C194.484 72.5276 192.968 71.6265 192.11 70.2749C184.503 70.4222 169.947 68.2561 163.319 50.7542C155.737 30.7223 171.238 19.2074 171.238 19.2074C151.353 16.2442 139.986 26.65 139.986 26.65C139.015 14.2081 148.043 4.97192 148.043 4.97192C114.287 0.0072673 109.063 35.9729 109.063 35.9729C99.9219 26.6414 102.564 12.5359 102.564 12.5359C76.6148 22.9417 86.2582 52.7296 86.2582 52.7296C73.1751 46.7339 70.3679 36.3541 70.3679 36.3541C57.458 50.3816 68.5743 70.1796 68.5743 70.1796C63.0812 70.7514 58.2378 67.8835 58.2378 67.8835C59.3295 94.7429 92.15 91.7711 92.15 91.7711C52.2854 96.0512 56.6349 65.1283 56.6349 65.1283C60.196 67.2597 64.9007 67.8835 64.9007 67.8835C54.954 44.3859 71.7888 30.679 71.7888 30.679C73.7903 42.3065 81.6488 45.4949 81.6488 45.4949C77.9578 10.6904 107.616 7.48457 107.616 7.48457C102.868 20.0305 107.702 27.6031 107.702 27.6031C118.983 -10.1127 155.157 3.12642 155.157 3.12642C146.614 7.80515 144.127 19.6666 144.127 19.6666C161.309 10.5517 178.351 17.8298 178.351 17.8298C178.351 17.8298 159.229 26.4508 165.84 48.4235C170.683 64.5131 184.382 67.6669 191.374 68.2128C191.356 68.0308 191.339 67.8575 191.339 67.6756C191.339 64.9897 193.514 62.8149 196.2 62.8149C198.886 62.8149 201.06 64.9897 201.06 67.6756C201.06 68.7846 200.679 69.8157 200.047 70.6388ZM158.649 58.2315C158.649 56.464 157.21 55.0257 155.443 55.0257C153.675 55.0257 152.237 56.464 152.237 58.2315C152.237 59.999 153.675 61.4373 155.443 61.4373C157.21 61.4459 158.649 60.0077 158.649 58.2315Z" fill="#95BF0A"/>
</svg>
